<?xml version="1.0" encoding="UTF-8" standalone="no"?>
<svg
   id="svg11"
   xml:space="preserve"
   viewBox="0 0 1000 560"
   y="0px"
   x="0px"
   version="1.1"
   sodipodi:docname="brandmark-design(5).svg"
   width="1000"
   height="560"
   inkscape:version="1.4 (e7c3feb1, 2024-10-09)"
   xmlns:inkscape="http://www.inkscape.org/namespaces/inkscape"
   xmlns:sodipodi="http://sodipodi.sourceforge.net/DTD/sodipodi-0.dtd"
   xmlns="http://www.w3.org/2000/svg"
   xmlns:svg="http://www.w3.org/2000/svg"
   xmlns:rdf="http://www.w3.org/1999/02/22-rdf-syntax-ns#"
   xmlns:cc="http://creativecommons.org/ns#"
   xmlns:dc="http://purl.org/dc/elements/1.1/"><sodipodi:namedview
     id="namedview1"
     pagecolor="#505050"
     bordercolor="#eeeeee"
     borderopacity="1"
     inkscape:showpageshadow="0"
     inkscape:pageopacity="0"
     inkscape:pagecheckerboard="0"
     inkscape:deskcolor="#505050"
     inkscape:zoom="0.30552205"
     inkscape:cx="819.9081"
     inkscape:cy="194.74863"
     inkscape:window-width="1728"
     inkscape:window-height="1080"
     inkscape:window-x="0"
     inkscape:window-y="37"
     inkscape:window-maximized="0"
     inkscape:current-layer="svg11" /><metadata
     id="metadata17"><rdf:RDF><cc:Work
         rdf:about=""><dc:format>image/svg+xml</dc:format><dc:type
           rdf:resource="http://purl.org/dc/dcmitype/StillImage" /></cc:Work></rdf:RDF></metadata><defs
     id="defs15" /><g
     transform="matrix(4.5413261,0,0,4.5413261,-1619.664,-1463.8692)"
     id="logo-group"><path
       stroke-miterlimit="2"
       d="m 356.65,322.38 h 24.84 q 10.26,0 16.2,1.62 5.94,1.53 8.73,5.4 2.79,3.87 2.79,10.71 v 23.76 q 0,6.66 -2.61,10.35 -2.61,3.6 -8.55,5.13 -5.94,1.44 -16.47,1.44 h -24.93 z m 24.3,48.42 q 5.76,0 8.64,-0.45 2.97,-0.54 4.23,-1.98 1.35,-1.44 1.35,-4.5 v -24.03 q 0,-4.14 -3.33,-5.76 -3.24,-1.71 -10.44,-1.71 h -10.71 v 38.43 z"
       style="font-variant-ligatures:none;stroke-width:0;stroke-miterlimit:2"
       id="path332094" /><path
       stroke-miterlimit="2"
       d="m 420.63,322.38 h 44.55 v 9.99 h -30.51 v 13.41 h 27.54 v 9.99 h -27.54 v 15.03 h 31.41 v 9.99 h -45.45 z"
       style="font-variant-ligatures:none;stroke-width:0;stroke-miterlimit:2"
       id="path332096" /><path
       stroke-miterlimit="2"
       d="m 475.48,322.38 h 44.55 v 9.99 h -30.51 v 13.41 h 27.54 v 9.99 h -27.54 v 15.03 h 31.41 v 9.99 h -45.45 z"
       style="font-variant-ligatures:none;stroke-width:0;stroke-miterlimit:2"
       id="path332098" /><path
       stroke-miterlimit="2"
       d="m 530.32,322.38 h 23.4 q 8.55,0 13.5,1.17 5.04,1.17 7.29,4.14 2.34,2.88 2.34,8.1 v 11.07 q 0,5.76 -2.52,9 -2.43,3.24 -7.83,4.59 -5.31,1.35 -14.4,1.35 h -7.74 v 18.99 h -14.04 z m 22.95,29.79 q 5.49,0 7.74,-1.26 2.25,-1.35 2.25,-4.5 v -9.36 q 0,-2.88 -2.16,-3.78 -2.07,-0.9 -8.01,-0.9 h -8.73 v 19.8 z"
       style="font-variant-ligatures:none;stroke-width:0;stroke-miterlimit:2"
       id="path332100" /><path
       stroke-miterlimit="2"
       d="m 356.65,387.21 h 26.28 q 11.7,0 16.92,2.88 5.22,2.79 5.22,9.45 v 10.26 q 0,5.13 -3.69,8.1 -3.6,2.88 -9.63,3.69 l 16.92,24.03 h -16.2 l -15.3,-22.95 h -6.48 v 22.95 h -14.04 z m 26.1,26.19 q 4.95,0 6.75,-1.26 1.8,-1.35 1.8,-5.13 v -4.14 q 0,-3.24 -1.98,-4.41 -1.89,-1.26 -6.57,-1.26 h -12.06 v 16.2 z"
       style="font-variant-ligatures:none;fill:#850101;stroke-width:0;stroke-miterlimit:2"
       id="path332102" /><path
       stroke-miterlimit="2"
       d="m 416.77,387.21 h 44.55 v 9.99 h -30.51 v 13.41 h 27.54 v 9.99 h -27.54 v 15.03 h 31.41 v 9.99 h -45.45 z"
       style="font-variant-ligatures:none;fill:#850101;stroke-width:0;stroke-miterlimit:2"
       id="path332104" /><path
       stroke-miterlimit="2"
       d="m 471.61,387.21 h 24.84 q 10.26,0 16.2,1.62 5.94,1.53 8.73,5.4 2.79,3.87 2.79,10.71 v 23.76 q 0,6.66 -2.61,10.35 -2.61,3.6 -8.55,5.13 -5.94,1.44 -16.47,1.44 h -24.93 z m 24.3,48.42 q 5.76,0 8.64,-0.45 2.97,-0.54 4.23,-1.98 1.35,-1.44 1.35,-4.5 v -24.03 q 0,-4.14 -3.33,-5.76 -3.24,-1.71 -10.44,-1.71 h -10.71 v 38.43 z"
       style="font-variant-ligatures:none;fill:#850101;stroke-width:0;stroke-miterlimit:2"
       id="path332106" /><path
       style="fill:#850101;stroke-width:0.3375"
       d="m 556.77,396.16 c -0.42822,-0.004 -0.83784,-0.004 -0.9101,1.9e-4 -0.0722,0.004 -0.27903,0.0154 -0.45974,0.0263 -0.18052,0.0109 -0.46764,0.0325 -0.63801,0.0479 -0.1702,0.0156 -0.47419,0.0493 -0.67554,0.0752 -0.20116,0.0259 -0.56427,0.0809 -0.8069,0.12216 -0.24244,0.0413 -0.58022,0.10508 -0.7506,0.14148 -0.17019,0.0364 -0.46163,0.10415 -0.64739,0.1505 -0.18577,0.0464 -0.48546,0.12666 -0.66616,0.17827 -0.18051,0.0518 -0.48451,0.14505 -0.67554,0.20735 -0.19083,0.0623 -0.52862,0.18108 -0.7506,0.26384 -0.2218,0.0827 -0.56801,0.2203 -0.76936,0.30568 -0.20116,0.0856 -0.51361,0.22443 -0.69431,0.30868 -0.18051,0.0843 -0.45916,0.22143 -0.61924,0.30493 -0.16007,0.0833 -0.4344,0.23194 -0.60986,0.33008 -0.17546,0.0983 -0.43723,0.25032 -0.58172,0.33797 -0.14449,0.0876 -0.41884,0.26234 -0.60986,0.38863 -0.19084,0.1261 -0.47139,0.31807 -0.62319,0.42653 -0.15181,0.10847 -0.3967,0.2903 -0.54419,0.40419 -0.14749,0.11391 -0.40739,0.32314 -0.57777,0.46501 -0.17019,0.14168 -0.43216,0.36781 -0.58171,0.50197 -0.14956,0.13435 -0.4834,0.45599 -0.74159,0.71475 -0.25839,0.25877 -0.57139,0.58435 -0.69562,0.72377 -0.12422,0.13943 -0.33533,0.38411 -0.46913,0.54419 -0.13379,0.15987 -0.32857,0.40064 -0.4327,0.5348 -0.10415,0.13417 -0.26928,0.35373 -0.36704,0.48789 -0.0976,0.13417 -0.27471,0.38748 -0.39349,0.56295 -0.11897,0.17545 -0.29236,0.44135 -0.38562,0.5911 -0.0933,0.14955 -0.25145,0.41472 -0.35148,0.5892 -0.10001,0.17433 -0.26515,0.47419 -0.36703,0.66616 -0.10189,0.19197 -0.26139,0.51077 -0.35427,0.70875 -0.0929,0.19778 -0.23137,0.50591 -0.30794,0.68492 -0.0766,0.17884 -0.19478,0.47024 -0.2629,0.6476 -0.0681,0.17733 -0.17958,0.48563 -0.24769,0.68492 -0.0681,0.19947 -0.17358,0.52863 -0.23438,0.73147 -0.0608,0.20303 -0.16119,0.57138 -0.2233,0.8187 -0.0619,0.24733 -0.14656,0.61756 -0.18802,0.82266 -0.0415,0.2051 -0.0966,0.49747 -0.12254,0.64965 -0.0261,0.15219 -0.0681,0.43123 -0.0938,0.62019 -0.0255,0.18878 -0.0634,0.51604 -0.0839,0.72715 -0.0206,0.2111 -0.048,0.53574 -0.0612,0.7215 -0.0139,0.19741 -0.0238,0.69242 -0.0238,1.1916 0,0.49917 0.01,0.99418 0.0238,1.1916 0.0131,0.18577 0.0403,0.50723 0.0604,0.71456 0.0203,0.20716 0.0539,0.50702 0.0751,0.66615 0.021,0.15913 0.0634,0.44135 0.0944,0.62715 0.0308,0.18577 0.0893,0.50233 0.13004,0.70368 0.0407,0.20116 0.12029,0.55168 0.17658,0.77875 0.0565,0.22706 0.14168,0.54793 0.18953,0.71307 0.0477,0.16513 0.13792,0.45637 0.20022,0.64739 0.0625,0.19084 0.18033,0.52637 0.26177,0.74554 0.0814,0.21918 0.21974,0.56727 0.30756,0.77385 0.0878,0.20642 0.23588,0.53798 0.32933,0.73673 0.0933,0.19891 0.25783,0.52785 0.36571,0.73089 0.10771,0.20304 0.27303,0.50291 0.36723,0.66616 0.0944,0.16326 0.2477,0.41941 0.34078,0.56896 0.0931,0.14955 0.26646,0.41563 0.38505,0.5911 0.1186,0.17545 0.29499,0.42764 0.39201,0.56052 0.097,0.13285 0.26196,0.35167 0.36666,0.4864 0.10452,0.13473 0.29967,0.37641 0.43385,0.53723 0.13399,0.16082 0.35374,0.41489 0.48789,0.56444 0.13436,0.14955 0.44756,0.47513 0.696,0.72319 0.24826,0.24826 0.57402,0.56127 0.72356,0.696 0.14956,0.13454 0.41152,0.36085 0.58172,0.5027 0.17039,0.14187 0.46163,0.37419 0.64739,0.51624 0.18577,0.14205 0.48978,0.36443 0.67554,0.4941 0.18577,0.12967 0.49221,0.33364 0.68097,0.45353 0.18878,0.11973 0.49333,0.30512 0.67649,0.41189 0.18333,0.10677 0.50176,0.28354 0.70764,0.39275 0.20585,0.10921 0.52936,0.27134 0.7187,0.36028 0.18934,0.0889 0.51867,0.23606 0.73184,0.32688 0.21317,0.091 0.56912,0.23307 0.79093,0.31582 0.22199,0.0828 0.55974,0.20154 0.7506,0.26383 0.19103,0.0623 0.49501,0.15557 0.67554,0.20736 0.18071,0.0516 0.4804,0.13192 0.66616,0.17827 0.18577,0.0463 0.49821,0.11803 0.6943,0.15931 0.1961,0.0413 0.53386,0.1049 0.7506,0.14149 0.21674,0.0366 0.55883,0.0874 0.75998,0.11296 0.20135,0.0257 0.50534,0.0593 0.67554,0.0751 0.17039,0.0156 0.45316,0.039 0.62863,0.052 0.19366,0.0143 0.66936,0.0233 1.2103,0.0227 0.65266,-6.8e-4 1.0045,-0.009 1.3136,-0.0326 0.23232,-0.0174 0.6123,-0.0529 0.84443,-0.079 0.23231,-0.0259 0.5911,-0.0726 0.79751,-0.10396 0.20642,-0.0311 0.58229,-0.098 0.83504,-0.14862 0.25296,-0.0505 0.66522,-0.14318 0.91648,-0.20623 0.25108,-0.0629 0.62262,-0.16419 0.82566,-0.22499 0.20286,-0.0608 0.53201,-0.16626 0.73147,-0.23438 0.19928,-0.0681 0.5076,-0.17958 0.68492,-0.24769 0.17733,-0.0681 0.46724,-0.18559 0.64439,-0.26102 0.17714,-0.0754 0.49933,-0.22068 0.71587,-0.32295 0.21674,-0.10208 0.58658,-0.28935 0.82208,-0.4162 0.2355,-0.12667 0.59485,-0.33027 0.79883,-0.45242 0.20398,-0.12216 0.50814,-0.31207 0.67591,-0.42201 0.16795,-0.10996 0.41941,-0.28054 0.55884,-0.37925 0.13942,-0.0985 0.40645,-0.29593 0.59335,-0.43855 0.1869,-0.14261 0.47831,-0.37473 0.6474,-0.51583 0.16926,-0.14112 0.42147,-0.35823 0.56089,-0.48283 0.13942,-0.12441 0.46933,-0.44192 0.73332,-0.70538 0.26402,-0.26346 0.61867,-0.63575 0.78813,-0.82714 0.16945,-0.1914 0.41377,-0.4774 0.5427,-0.63558 0.1291,-0.158 0.35279,-0.44473 0.49727,-0.63707 0.14449,-0.19234 0.36102,-0.49315 0.48114,-0.66858 0.1201,-0.17546 0.3008,-0.44979 0.40119,-0.60987 0.10058,-0.16006 0.2689,-0.43871 0.37418,-0.61924 0.10527,-0.18071 0.27453,-0.48472 0.37625,-0.67554 0.10152,-0.19103 0.24732,-0.47794 0.32369,-0.63801 0.0766,-0.16007 0.2113,-0.45563 0.29949,-0.65678 0.0882,-0.20135 0.2265,-0.53649 0.30737,-0.74496 0.0811,-0.20829 0.20717,-0.55451 0.28017,-0.76937 0.0732,-0.21467 0.18689,-0.57607 0.25276,-0.80314 0.0661,-0.22706 0.15781,-0.56484 0.20416,-0.7506 0.0462,-0.18578 0.11803,-0.49822 0.15932,-0.69431 0.0415,-0.19609 0.10902,-0.5592 0.15031,-0.80689 0.0413,-0.2477 0.0965,-0.63201 0.12272,-0.85381 0.0261,-0.22199 0.0604,-0.55978 0.076,-0.7506 0.0156,-0.19103 0.0368,-0.5288 0.0471,-0.7506 0.0105,-0.22199 0.0189,-0.60197 0.0189,-0.84443 0,-0.24263 -0.008,-0.62262 -0.0189,-0.84442 -0.0103,-0.22199 -0.0315,-0.55975 -0.0471,-0.7506 -0.0156,-0.19103 -0.0499,-0.5288 -0.076,-0.7506 -0.0263,-0.22199 -0.0814,-0.60612 -0.12272,-0.85381 -0.0413,-0.2477 -0.10884,-0.61081 -0.15031,-0.8069 -0.0415,-0.19609 -0.11672,-0.52241 -0.16739,-0.72508 -0.0507,-0.20285 -0.13098,-0.50254 -0.17807,-0.66616 -0.0473,-0.16363 -0.13699,-0.45373 -0.19948,-0.64476 -0.0625,-0.19103 -0.18127,-0.52879 -0.26402,-0.7506 -0.0828,-0.2218 -0.22105,-0.57007 -0.30756,-0.77368 -0.0865,-0.20379 -0.23362,-0.53312 -0.32708,-0.73184 -0.0933,-0.19891 -0.25464,-0.52204 -0.35859,-0.71813 -0.10396,-0.19609 -0.26965,-0.49596 -0.36798,-0.66616 -0.0985,-0.1702 -0.26327,-0.44472 -0.36612,-0.60986 -0.10302,-0.16513 -0.27622,-0.43122 -0.38488,-0.5911 -0.10884,-0.16006 -0.27697,-0.3995 -0.37382,-0.53237 -0.0966,-0.13286 -0.26139,-0.35164 -0.36612,-0.48641 -0.10452,-0.13473 -0.29967,-0.37641 -0.43385,-0.53723 -0.13398,-0.16081 -0.35353,-0.41489 -0.48789,-0.56443 -0.13417,-0.14975 -0.4558,-0.4834 -0.71456,-0.74159 -0.25876,-0.2584 -0.58434,-0.57159 -0.72377,-0.6962 -0.13942,-0.12441 -0.39163,-0.34172 -0.56089,-0.48282 -0.16907,-0.14112 -0.46048,-0.37325 -0.64739,-0.51584 -0.1869,-0.14261 -0.45394,-0.34003 -0.59336,-0.43855 -0.13942,-0.0987 -0.38937,-0.26815 -0.55525,-0.37698 -0.16607,-0.10884 -0.46987,-0.29856 -0.67534,-0.42201 -0.20548,-0.12329 -0.56653,-0.32783 -0.80241,-0.45468 -0.23569,-0.12686 -0.60591,-0.31413 -0.82265,-0.41621 -0.21655,-0.10227 -0.53875,-0.24751 -0.71587,-0.32295 -0.17715,-0.0754 -0.4697,-0.19402 -0.6504,-0.26364 -0.18052,-0.0696 -0.48884,-0.1809 -0.68492,-0.24751 -0.1961,-0.0666 -0.52262,-0.17095 -0.72546,-0.23175 -0.20304,-0.061 -0.57027,-0.16119 -0.81628,-0.22274 -0.246,-0.0615 -0.61192,-0.1458 -0.81327,-0.18709 -0.20116,-0.0415 -0.52205,-0.10095 -0.71307,-0.13229 -0.19084,-0.0313 -0.47382,-0.0736 -0.62863,-0.0942 -0.15481,-0.0204 -0.40814,-0.0503 -0.56295,-0.0664 -0.15481,-0.0161 -0.45448,-0.0422 -0.66616,-0.058 -0.22011,-0.0163 -0.71776,-0.0313 -1.1634,-0.0351 z m -0.26083,1.6806 c 0.27472,-10e-4 0.67159,0.006 0.88196,0.0161 0.21054,0.0105 0.5348,0.0319 0.72056,0.0475 0.18577,0.0156 0.47287,0.045 0.63801,0.0657 0.16513,0.0206 0.43966,0.0591 0.60986,0.0854 0.17039,0.0263 0.49538,0.085 0.72245,0.13042 0.22706,0.0452 0.56916,0.12103 0.75999,0.16832 0.19102,0.0471 0.50365,0.13154 0.69504,0.18746 0.19141,0.0557 0.50386,0.1535 0.69431,0.21693 0.19046,0.0636 0.48995,0.17057 0.66541,0.23794 0.17546,0.0672 0.46501,0.18446 0.64345,0.26064 0.17827,0.0762 0.49069,0.21805 0.6943,0.31525 0.20342,0.097 0.49242,0.24151 0.64196,0.32089 0.14975,0.0794 0.41152,0.2248 0.58172,0.3235 0.17019,0.0987 0.47439,0.28429 0.67554,0.41263 0.20135,0.12835 0.52636,0.3481 0.72225,0.48826 0.19609,0.14017 0.46554,0.33983 0.59899,0.44378 0.13342,0.10396 0.35296,0.28129 0.48809,0.39427 0.13493,0.11278 0.35934,0.30662 0.49876,0.43085 0.13943,0.12404 0.44361,0.41583 0.67628,0.64851 0.23269,0.23268 0.52411,0.53686 0.64777,0.67628 0.12366,0.13942 0.29273,0.33345 0.37567,0.43159 0.0829,0.098 0.21842,0.26271 0.30099,0.36592 0.0826,0.10321 0.22631,0.28898 0.31938,0.41283 0.0931,0.12385 0.25051,0.34098 0.35015,0.48263 0.0995,0.14148 0.2644,0.38637 0.36612,0.54418 0.1019,0.15763 0.25314,0.40065 0.33608,0.54007 0.0829,0.13942 0.21242,0.36311 0.28748,0.49727 0.0751,0.13417 0.24714,0.46781 0.38242,0.74122 0.1353,0.2734 0.31113,0.64928 0.39069,0.83504 0.0794,0.18577 0.20285,0.48978 0.27435,0.67554 0.0715,0.18577 0.18202,0.4939 0.24582,0.68492 0.0638,0.19084 0.16232,0.5076 0.21917,0.70369 0.0567,0.1961 0.14074,0.50855 0.18672,0.69431 0.046,0.18577 0.12085,0.52353 0.16626,0.7506 0.0456,0.22705 0.10414,0.55208 0.13041,0.72245 0.0263,0.1702 0.0602,0.40665 0.0756,0.52542 0.0152,0.11859 0.0448,0.40156 0.0655,0.62863 0.0208,0.22705 0.0465,0.5943 0.0572,0.81627 0.0105,0.22181 0.0191,0.58489 0.0191,0.8069 0,0.2218 -0.009,0.58489 -0.0191,0.80689 -0.0107,0.22181 -0.0364,0.58921 -0.0572,0.81628 -0.0206,0.22706 -0.0503,0.50983 -0.0655,0.62863 -0.0154,0.11859 -0.0494,0.35505 -0.0756,0.52542 -0.0263,0.1702 -0.0848,0.49538 -0.13041,0.72245 -0.0454,0.22706 -0.12029,0.56484 -0.16626,0.7506 -0.046,0.18577 -0.13004,0.49822 -0.1869,0.69431 -0.0569,0.19609 -0.15556,0.51266 -0.21918,0.70368 -0.0638,0.19084 -0.17432,0.49917 -0.24563,0.68493 -0.0715,0.18577 -0.19497,0.48978 -0.27435,0.67554 -0.0796,0.18577 -0.25539,0.56146 -0.39069,0.83504 -0.13529,0.2734 -0.30737,0.60706 -0.38242,0.74122 -0.0751,0.13417 -0.20454,0.35785 -0.28748,0.49727 -0.0829,0.13923 -0.23418,0.38242 -0.33608,0.54007 -0.1017,0.15781 -0.26665,0.4027 -0.36612,0.54418 -0.0996,0.14168 -0.25708,0.3588 -0.35015,0.48263 -0.0931,0.12385 -0.23682,0.30962 -0.31938,0.41283 -0.0826,0.1032 -0.21805,0.26796 -0.30099,0.36591 -0.0829,0.098 -0.25202,0.29217 -0.37587,0.4316 -0.12385,0.13923 -0.41547,0.44378 -0.64797,0.67648 -0.23231,0.23269 -0.53649,0.52411 -0.67591,0.64777 -0.13943,0.12366 -0.33346,0.29255 -0.4316,0.3755 -0.0979,0.0829 -0.26271,0.21842 -0.36591,0.30099 -0.10321,0.0826 -0.28899,0.22631 -0.41283,0.31919 -0.12385,0.0929 -0.33909,0.24958 -0.47851,0.34827 -0.13943,0.0985 -0.38411,0.26346 -0.54419,0.36629 -0.15987,0.10283 -0.40476,0.25482 -0.54418,0.33777 -0.13943,0.0827 -0.35465,0.20791 -0.47851,0.27791 -0.12385,0.0702 -0.42353,0.22649 -0.66616,0.34752 -0.24263,0.12103 -0.58866,0.28542 -0.76936,0.36534 -0.18052,0.0801 -0.48452,0.20679 -0.67554,0.28185 -0.19103,0.0749 -0.45694,0.17508 -0.5911,0.22237 -0.13417,0.0475 -0.37905,0.12891 -0.54418,0.18089 -0.16514,0.0522 -0.46481,0.13999 -0.66616,0.19535 -0.20116,0.0552 -0.51361,0.13454 -0.69431,0.17639 -0.18052,0.0417 -0.48451,0.10546 -0.67554,0.14148 -0.19084,0.036 -0.49069,0.0869 -0.66615,0.11297 -0.17546,0.0261 -0.4288,0.0602 -0.56295,0.076 -0.13417,0.0158 -0.39164,0.0415 -0.57234,0.057 -0.18052,0.0156 -0.50571,0.0368 -0.72245,0.0471 -0.21674,0.0103 -0.57554,0.019 -0.79751,0.019 -0.2218,0 -0.58077,-0.009 -0.79751,-0.0191 -0.21674,-0.0103 -0.54176,-0.0319 -0.72246,-0.0477 -0.18052,-0.0158 -0.43817,-0.0413 -0.57233,-0.0567 -0.13417,-0.0154 -0.3832,-0.0488 -0.55357,-0.0743 -0.1702,-0.0257 -0.42785,-0.0683 -0.57233,-0.095 -0.14449,-0.0267 -0.39781,-0.0777 -0.56295,-0.11353 -0.16513,-0.0358 -0.4162,-0.0942 -0.55806,-0.12985 -0.14167,-0.0357 -0.39085,-0.10302 -0.55356,-0.14994 -0.1627,-0.0469 -0.40963,-0.12215 -0.54908,-0.16719 -0.13924,-0.045 -0.37156,-0.12385 -0.51604,-0.17508 -0.14449,-0.0512 -0.38094,-0.13961 -0.52542,-0.19628 -0.14449,-0.0569 -0.39349,-0.15969 -0.55357,-0.22856 -0.15987,-0.0691 -0.45974,-0.20716 -0.66615,-0.30718 -0.20642,-0.10002 -0.51456,-0.25652 -0.68493,-0.3479 -0.1702,-0.0914 -0.41094,-0.22537 -0.5348,-0.29799 -0.12385,-0.0724 -0.30118,-0.17883 -0.39406,-0.23625 -0.0929,-0.0574 -0.3177,-0.20322 -0.49954,-0.32388 -0.18183,-0.12066 -0.44361,-0.30174 -0.58171,-0.40234 -0.13812,-0.10076 -0.36086,-0.26833 -0.49501,-0.37249 -0.13417,-0.10434 -0.34942,-0.27792 -0.47851,-0.386 -0.12892,-0.10809 -0.34847,-0.29799 -0.48789,-0.42201 -0.13924,-0.12404 -0.44378,-0.41584 -0.67649,-0.64834 -0.23268,-0.23231 -0.5241,-0.53669 -0.64776,-0.67591 -0.12366,-0.13943 -0.29255,-0.33364 -0.3755,-0.4316 -0.0829,-0.0979 -0.21843,-0.26271 -0.30099,-0.36591 -0.0826,-0.10321 -0.22631,-0.28899 -0.31938,-0.41283 -0.0931,-0.12385 -0.25052,-0.34095 -0.35016,-0.48263 -0.0994,-0.14149 -0.2644,-0.38637 -0.36612,-0.54418 -0.10189,-0.15763 -0.25314,-0.40082 -0.33608,-0.54007 -0.0829,-0.13943 -0.21242,-0.36312 -0.28748,-0.49727 -0.0753,-0.13417 -0.23137,-0.43403 -0.34715,-0.66616 -0.11578,-0.23231 -0.27585,-0.57007 -0.35596,-0.7506 -0.0799,-0.18071 -0.20679,-0.48472 -0.28185,-0.67554 -0.0749,-0.19103 -0.17489,-0.45694 -0.22237,-0.5911 -0.0473,-0.13417 -0.12479,-0.36649 -0.17207,-0.51604 -0.0473,-0.14974 -0.1231,-0.40307 -0.16832,-0.56295 -0.0452,-0.16006 -0.11672,-0.43028 -0.15876,-0.60048 -0.0418,-0.17038 -0.11353,-0.49538 -0.15894,-0.72245 -0.0456,-0.22706 -0.10414,-0.55225 -0.13041,-0.72245 -0.0263,-0.17039 -0.0606,-0.41094 -0.0762,-0.5348 -0.0156,-0.12385 -0.0407,-0.34773 -0.0557,-0.49728 -0.015,-0.14974 -0.0383,-0.4241 -0.0516,-0.60986 -0.0141,-0.19647 -0.0242,-0.67142 -0.0242,-1.1353 0,-0.46386 0.0101,-0.93883 0.0242,-1.1353 0.0133,-0.18578 0.0366,-0.46032 0.0516,-0.60987 0.015,-0.14974 0.0402,-0.37341 0.0557,-0.49727 0.0156,-0.12385 0.0499,-0.3646 0.0762,-0.5348 0.0263,-0.17039 0.0856,-0.4997 0.1321,-0.73184 0.0463,-0.23231 0.13436,-0.61961 0.19553,-0.86093 0.0614,-0.24131 0.15425,-0.57908 0.20661,-0.7506 0.0523,-0.17151 0.13792,-0.43854 0.19009,-0.59335 0.0522,-0.15482 0.14974,-0.42502 0.21673,-0.60048 0.067,-0.17546 0.18503,-0.46687 0.26215,-0.6474 0.0771,-0.1807 0.22124,-0.49727 0.32013,-0.70368 0.0991,-0.20642 0.2385,-0.48509 0.31,-0.61925 0.0715,-0.13417 0.2021,-0.37061 0.29048,-0.52542 0.0884,-0.15481 0.22387,-0.38279 0.30099,-0.50665 0.0771,-0.12385 0.22706,-0.35617 0.33327,-0.51604 0.10621,-0.16007 0.28034,-0.41057 0.38674,-0.55678 0.1064,-0.14617 0.27209,-0.3676 0.36835,-0.49183 0.0963,-0.12423 0.26871,-0.33815 0.38356,-0.47531 0.11466,-0.13717 0.31,-0.36328 0.43403,-0.5027 0.12404,-0.13943 0.41583,-0.44361 0.64851,-0.67591 0.23268,-0.2325 0.53723,-0.52411 0.67648,-0.64797 0.13943,-0.12385 0.33364,-0.29311 0.4316,-0.37624 0.0979,-0.0831 0.27959,-0.23156 0.40344,-0.3297 0.12385,-0.0981 0.33926,-0.26271 0.47851,-0.36572 0.13943,-0.10302 0.33777,-0.2462 0.44098,-0.31807 0.10321,-0.072 0.31844,-0.21579 0.47851,-0.31956 0.16006,-0.10359 0.40493,-0.25634 0.54418,-0.33946 0.13943,-0.0829 0.36291,-0.21205 0.49707,-0.28692 0.13398,-0.0749 0.41263,-0.22049 0.61925,-0.32369 0.20641,-0.10321 0.43891,-0.21693 0.51624,-0.25258 0.0775,-0.0357 0.27171,-0.12197 0.43159,-0.19178 0.16007,-0.0698 0.4344,-0.18221 0.60986,-0.24976 0.17546,-0.0676 0.41621,-0.15669 0.53481,-0.19816 0.11878,-0.0415 0.32144,-0.10959 0.45036,-0.15144 0.1291,-0.0418 0.36871,-0.11446 0.53274,-0.16156 0.164,-0.0469 0.4132,-0.1141 0.55357,-0.14937 0.14055,-0.0353 0.39048,-0.0936 0.55562,-0.12948 0.16514,-0.036 0.44378,-0.0914 0.61925,-0.1231 0.17545,-0.0317 0.43703,-0.0749 0.58151,-0.0957 0.1443,-0.021 0.40608,-0.0544 0.58172,-0.0741 0.17545,-0.0199 0.4374,-0.0454 0.58191,-0.057 0.14449,-0.0115 0.3937,-0.0276 0.55357,-0.0357 0.16007,-0.008 0.51546,-0.0161 0.79002,-0.0176 z m 0.2233,2.5402 c -0.35596,-0.004 -0.78664,7.4e-4 -0.95701,0.0103 -0.1702,0.009 -0.4755,0.034 -0.67817,0.0546 -0.20266,0.0206 -0.51604,0.0586 -0.6962,0.0845 -0.18014,0.0257 -0.4618,0.0724 -0.62599,0.10377 -0.16401,0.0313 -0.42917,0.0873 -0.58921,0.12441 -0.15988,0.037 -0.44287,0.10865 -0.62863,0.1595 -0.18577,0.0507 -0.52353,0.15425 -0.7506,0.23006 -0.22705,0.0758 -0.57328,0.20135 -0.76936,0.27904 -0.1961,0.0777 -0.48958,0.20116 -0.65209,0.27434 -0.16269,0.0732 -0.40587,0.1884 -0.54081,0.25596 -0.13473,0.0675 -0.37324,0.19327 -0.52991,0.27922 -0.15687,0.0861 -0.38637,0.21767 -0.51023,0.29236 -0.12385,0.0749 -0.33064,0.20435 -0.45974,0.28767 -0.12891,0.0835 -0.31901,0.21054 -0.42221,0.28241 -0.10321,0.0719 -0.30587,0.21955 -0.45036,0.3282 -0.14449,0.10865 -0.33027,0.25258 -0.41283,0.31994 -0.0826,0.0674 -0.20492,0.16908 -0.2721,0.22593 -0.067,0.0569 -0.19778,0.17114 -0.29048,0.25389 -0.0927,0.0828 -0.27847,0.25483 -0.41283,0.38225 -0.13436,0.12742 -0.36571,0.35954 -0.51415,0.51604 -0.14824,0.15632 -0.36402,0.39407 -0.47945,0.52822 -0.11521,0.13417 -0.2811,0.33252 -0.36835,0.44098 -0.0872,0.10827 -0.23118,0.29424 -0.31956,0.41283 -0.0882,0.11859 -0.22819,0.313 -0.31094,0.4316 -0.0828,0.11859 -0.23381,0.34657 -0.33589,0.50665 -0.1019,0.15988 -0.27284,0.44287 -0.37999,0.62863 -0.10696,0.18577 -0.29874,0.54887 -0.42617,0.80689 -0.12722,0.25802 -0.28166,0.58735 -0.34303,0.73184 -0.0612,0.14449 -0.16645,0.40625 -0.23344,0.58171 -0.0672,0.17546 -0.17451,0.47814 -0.23831,0.67274 -0.064,0.19459 -0.15688,0.50271 -0.20661,0.68492 -0.0499,0.18221 -0.12084,0.46201 -0.15781,0.62205 -0.0372,0.15988 -0.0931,0.42485 -0.12422,0.58847 -0.0313,0.16381 -0.0777,0.44246 -0.1034,0.61924 -0.0255,0.17696 -0.0632,0.49052 -0.0841,0.69694 -0.0206,0.20641 -0.0462,0.54756 -0.0565,0.75809 -0.0105,0.21036 -0.0191,0.54061 -0.0191,0.73373 0,0.19309 0.009,0.52336 0.0191,0.73372 0.0103,0.21054 0.0358,0.55168 0.0565,0.75809 0.0208,0.20642 0.0585,0.51999 0.0841,0.69694 0.0257,0.17677 0.0721,0.45542 0.1034,0.61925 0.0311,0.16363 0.0871,0.42842 0.12422,0.58846 0.037,0.15988 0.1079,0.43986 0.15781,0.62205 0.0497,0.18221 0.14262,0.49032 0.20661,0.68492 0.0638,0.19459 0.17113,0.49727 0.23831,0.67274 0.067,0.17545 0.17264,0.43723 0.23438,0.58171 0.0619,0.14449 0.19009,0.42353 0.28523,0.62019 0.095,0.19666 0.23475,0.47119 0.31056,0.60987 0.0758,0.13886 0.20547,0.36628 0.28804,0.50571 0.0826,0.13923 0.21767,0.35879 0.30024,0.48789 0.0826,0.12891 0.21767,0.33157 0.30005,0.45036 0.0826,0.11859 0.23888,0.33401 0.34752,0.4785 0.10865,0.14449 0.25258,0.33027 0.31995,0.41283 0.0674,0.0826 0.16907,0.20492 0.2263,0.2721 0.0571,0.067 0.20173,0.23174 0.32164,0.36591 0.11972,0.13417 0.3541,0.38074 0.52093,0.54777 0.16663,0.16719 0.42315,0.41262 0.57027,0.5455 0.14693,0.13285 0.35259,0.31299 0.45711,0.40024 0.10434,0.0873 0.29855,0.24319 0.4316,0.34641 0.13285,0.10321 0.31787,0.24319 0.41094,0.31112 0.0931,0.0679 0.30849,0.21636 0.4785,0.32951 0.17002,0.11335 0.42897,0.27885 0.57534,0.36781 0.14637,0.0888 0.39687,0.23344 0.55694,0.32107 0.15988,0.0878 0.39218,0.21054 0.51624,0.27284 0.12423,0.0621 0.36666,0.17696 0.53875,0.25483 0.17227,0.0781 0.47024,0.20417 0.66241,0.28035 0.19216,0.076 0.50139,0.19009 0.68719,0.25352 0.18577,0.0634 0.48131,0.15669 0.65677,0.20717 0.17546,0.0507 0.45826,0.12647 0.62843,0.16832 0.1702,0.0418 0.45731,0.10508 0.63801,0.14073 0.18071,0.0355 0.37925,0.0732 0.44118,0.0839 0.0619,0.0105 0.26458,0.04 0.45036,0.0651 0.18577,0.0253 0.47719,0.0589 0.64739,0.0749 0.17039,0.0158 0.4997,0.0385 0.73184,0.0505 0.25257,0.0131 0.63331,0.0173 0.94763,0.0105 0.28898,-0.006 0.64796,-0.0204 0.79751,-0.0315 0.14975,-0.0111 0.4241,-0.037 0.60986,-0.0574 0.18578,-0.0205 0.47719,-0.0587 0.6474,-0.085 0.17038,-0.0263 0.45316,-0.0764 0.62862,-0.11146 0.17546,-0.0351 0.47534,-0.10227 0.66616,-0.14937 0.19103,-0.0473 0.47419,-0.1231 0.62937,-0.1687 0.155,-0.0458 0.44456,-0.13848 0.64307,-0.20622 0.19853,-0.0676 0.53592,-0.19366 0.74986,-0.27979 0.21392,-0.0863 0.51155,-0.21336 0.6611,-0.28222 0.14974,-0.0689 0.43254,-0.20811 0.62862,-0.30944 0.1961,-0.10133 0.49053,-0.26177 0.65415,-0.35654 0.16363,-0.0948 0.43834,-0.26308 0.61023,-0.37418 0.17207,-0.1109 0.45184,-0.30156 0.62188,-0.42353 0.17019,-0.12216 0.4697,-0.35073 0.66578,-0.50797 0.1961,-0.15744 0.47908,-0.39555 0.62863,-0.52954 0.14975,-0.1338 0.41209,-0.38299 0.5834,-0.55377 0.17114,-0.17058 0.42073,-0.43159 0.55468,-0.57983 0.13398,-0.14824 0.31507,-0.35484 0.40234,-0.45937 0.0873,-0.10433 0.24319,-0.29855 0.34641,-0.43159 0.10321,-0.13286 0.24488,-0.32013 0.31469,-0.41583 0.07,-0.0959 0.21823,-0.31113 0.3297,-0.47851 0.11146,-0.16739 0.27434,-0.42259 0.36197,-0.56707 0.0876,-0.14449 0.2278,-0.38637 0.31149,-0.5376 0.0837,-0.15125 0.20736,-0.38526 0.27491,-0.52016 0.0676,-0.13473 0.18652,-0.3858 0.26459,-0.55789 0.0779,-0.17188 0.20397,-0.46986 0.28016,-0.66204 0.076,-0.19215 0.19028,-0.50139 0.2537,-0.68718 0.0634,-0.18577 0.15331,-0.46875 0.19985,-0.62863 0.0465,-0.16006 0.12178,-0.44155 0.16738,-0.62562 0.0456,-0.18409 0.11203,-0.4802 0.1475,-0.65789 0.0357,-0.17789 0.0861,-0.462 0.1124,-0.63163 0.0261,-0.16964 0.0644,-0.46049 0.085,-0.64628 0.0205,-0.18577 0.048,-0.47719 0.061,-0.64739 0.0135,-0.17433 0.0238,-0.62505 0.0238,-1.0321 0,-0.40702 -0.0103,-0.85775 -0.0238,-1.0321 -0.013,-0.17039 -0.0405,-0.46163 -0.061,-0.64739 -0.0207,-0.18578 -0.0589,-0.47662 -0.085,-0.64628 -0.0263,-0.16964 -0.0768,-0.45374 -0.1124,-0.63164 -0.0355,-0.1777 -0.1019,-0.47381 -0.1475,-0.65788 -0.0456,-0.18409 -0.12103,-0.46575 -0.16757,-0.62563 -0.0465,-0.16006 -0.13642,-0.44287 -0.19947,-0.62862 -0.0631,-0.18578 -0.17714,-0.49502 -0.25352,-0.68719 -0.0764,-0.19215 -0.20266,-0.49015 -0.28053,-0.66204 -0.0781,-0.17207 -0.19703,-0.42316 -0.26459,-0.55789 -0.0676,-0.13492 -0.19122,-0.36892 -0.27491,-0.52015 -0.0837,-0.15125 -0.22405,-0.39312 -0.31187,-0.5376 -0.0876,-0.1445 -0.22875,-0.36835 -0.31356,-0.49728 -0.0846,-0.1291 -0.23269,-0.34435 -0.32877,-0.4785 -0.0961,-0.13417 -0.25952,-0.35279 -0.36311,-0.48563 -0.10358,-0.13305 -0.25971,-0.32726 -0.34695,-0.4316 -0.0873,-0.10452 -0.26834,-0.31112 -0.40234,-0.45937 -0.13398,-0.14824 -0.38356,-0.40908 -0.55468,-0.57966 -0.17132,-0.17057 -0.4211,-0.40851 -0.55525,-0.52862 -0.13417,-0.11991 -0.34115,-0.29893 -0.45974,-0.39744 -0.1186,-0.0987 -0.32558,-0.26384 -0.45975,-0.36703 -0.13417,-0.10321 -0.36065,-0.27022 -0.50328,-0.37098 -0.1428,-0.10096 -0.38937,-0.26684 -0.54813,-0.36893 -0.15894,-0.10189 -0.42221,-0.26252 -0.58509,-0.3569 -0.16288,-0.0944 -0.45674,-0.25446 -0.65283,-0.35579 -0.19609,-0.10133 -0.47888,-0.24057 -0.62862,-0.30944 -0.14956,-0.0689 -0.44942,-0.19684 -0.66616,-0.28448 -0.21674,-0.0874 -0.55451,-0.21354 -0.7506,-0.27997 -0.1961,-0.0664 -0.4832,-0.158 -0.63801,-0.2036 -0.15481,-0.0454 -0.43349,-0.12066 -0.61925,-0.16701 -0.18577,-0.0464 -0.48546,-0.11372 -0.66615,-0.14993 -0.18052,-0.036 -0.46764,-0.0869 -0.63801,-0.11296 -0.1702,-0.0263 -0.46164,-0.0646 -0.6474,-0.0852 -0.18577,-0.0206 -0.46011,-0.0467 -0.60986,-0.058 -0.14956,-0.0111 -0.56332,-0.0233 -0.91948,-0.0272 z"
       id="icon" /></g></svg>
